<?xml version="1.0" encoding="utf-8"?>
<!-- Generator: Adobe Illustrator 19.0.0, SVG Export Plug-In . SVG Version: 6.00 Build 0)  -->
<svg version="1.1" id="Capa_1" xmlns="http://www.w3.org/2000/svg" xmlns:xlink="http://www.w3.org/1999/xlink" x="0px" y="0px"
	 width="366.261px" height="36.864px" viewBox="-1048.588 972.588 366.261 36.864"
	 style="enable-background:new -1048.588 972.588 366.261 36.864;" xml:space="preserve">
<style type="text/css">
	.st0{fill:#FFFFFF;}
	.st1{fill:#CC3300;}
</style>
<g>
	<path class="st0" d="M-1022.737,990.109l3.123-7.696h-7.212v9.636c0,0.714-0.404,1.336-0.996,1.649l-4.38,4.74h12.814l-3.349-7.696
		C-1022.829,990.562-1022.829,990.336-1022.737,990.109z"/>
	<polygon class="st0" points="-1033.241,993.914 -1033.241,997.172 -1030.255,993.914 	"/>
	<path class="st0" d="M-1028.447,992.049v-15.674c0-0.134-0.109-0.244-0.244-0.244h-15.674c-0.134,0-0.244,0.109-0.244,0.244v15.674
		c0,0.134,0.109,0.244,0.244,0.244h15.674C-1028.556,992.293-1028.447,992.184-1028.447,992.049z"/>
	<path d="M-1021.065,990.424l3.077-7.65c0.272-0.679,0.134-1.132-0.092-1.404c-0.407-0.587-1.086-0.633-1.266-0.633h-7.48v-4.362
		c0-1.028-0.836-1.864-1.865-1.864h-15.674c-1.028,0-1.864,0.836-1.864,1.864v15.674c0,1.028,0.836,1.864,1.864,1.864h9.401v4.164
		v0.226c0,0.998,0.813,1.857,1.857,1.857h13.945c0.046,0,0.092,0,0.18,0c0.134-0.046,0.859-0.18,1.224-0.859
		c0.088-0.365,0.222-0.817-0.046-1.454L-1021.065,990.424z M-1044.365,992.293c-0.134,0-0.244-0.109-0.244-0.244v-15.674
		c0-0.134,0.109-0.244,0.244-0.244h15.674c0.134,0,0.244,0.109,0.244,0.244v15.674c0,0.134-0.109,0.244-0.244,0.244H-1044.365z
		 M-1033.241,997.172v-3.258h2.986L-1033.241,997.172z M-1032.202,998.438l4.38-4.74c0.591-0.313,0.996-0.934,0.996-1.649v-9.636
		h7.212l-3.123,7.696c-0.092,0.226-0.092,0.453,0,0.633l3.349,7.696H-1032.202z"/>
	<path class="st0" d="M-1018.822,994.584l3.123-7.696h-7.212v9.636c0,0.714-0.404,1.336-0.996,1.649l-4.38,4.74h12.814l-3.349-7.696
		C-1018.914,995.037-1018.914,994.81-1018.822,994.584z"/>
	<polygon class="st0" points="-1029.326,997.829 -1029.326,1001.087 -1026.34,997.829 	"/>
	<path class="st0" d="M-1024.532,996.524V980.85c0-0.134-0.109-0.244-0.244-0.244h-15.674c-0.134,0-0.244,0.109-0.244,0.244v15.674
		c0,0.134,0.109,0.244,0.244,0.244h15.674C-1024.641,996.767-1024.532,996.658-1024.532,996.524z"/>
	<path d="M-1017.149,994.898l3.077-7.65c0.272-0.679,0.134-1.132-0.092-1.404c-0.407-0.587-1.086-0.633-1.266-0.633h-7.48v-4.362
		c0-1.028-0.836-1.864-1.864-1.864h-15.674c-1.028,0-1.864,0.836-1.864,1.864v15.674c0,1.028,0.836,1.864,1.864,1.864h9.401v4.164
		v0.226c0,0.998,0.813,1.857,1.857,1.857h13.945c0.046,0,0.092,0,0.18,0c0.134-0.046,0.859-0.18,1.224-0.859
		c0.088-0.365,0.222-0.817-0.046-1.454L-1017.149,994.898z M-1040.45,996.767c-0.134,0-0.244-0.109-0.244-0.244V980.85
		c0-0.134,0.109-0.244,0.244-0.244h15.674c0.134,0,0.244,0.109,0.244,0.244v15.674c0,0.134-0.109,0.244-0.244,0.244H-1040.45z
		 M-1029.326,1001.647v-3.258h2.986L-1029.326,1001.647z M-1028.286,1002.913l4.38-4.74c0.592-0.313,0.996-0.934,0.996-1.649v-9.636
		h7.212l-3.123,7.696c-0.092,0.226-0.092,0.453,0,0.633l3.349,7.696H-1028.286z"/>
	<path class="st1" d="M-1014.347,998.499l3.123-7.696h-7.212v9.636c0,0.714-0.404,1.336-0.996,1.649l-4.38,4.74h12.814l-3.349-7.696
		C-1014.44,998.952-1014.44,998.726-1014.347,998.499z"/>
	<polygon class="st1" points="-1024.851,1002.303 -1024.851,1005.562 -1021.865,1002.303 	"/>
	<path class="st1" d="M-1020.057,1000.439v-15.674c0-0.134-0.109-0.244-0.244-0.244h-15.674c-0.134,0-0.244,0.109-0.244,0.244
		v15.674c0,0.134,0.109,0.244,0.244,0.244h15.674C-1020.167,1000.683-1020.057,1000.573-1020.057,1000.439z"/>
	<path d="M-1012.675,998.814l3.077-7.65c0.272-0.679,0.134-1.132-0.092-1.404c-0.407-0.587-1.086-0.633-1.266-0.633h-7.48v-4.362
		c0-1.028-0.836-1.864-1.864-1.864h-15.674c-1.028,0-1.865,0.836-1.865,1.864v15.674c0,1.028,0.836,1.864,1.865,1.864h9.401v4.164
		v0.226c0,0.998,0.813,1.857,1.857,1.857h13.945c0.046,0,0.092,0,0.18,0c0.134-0.046,0.859-0.18,1.224-0.859
		c0.088-0.365,0.222-0.817-0.046-1.454L-1012.675,998.814z M-1035.975,1000.683c-0.134,0-0.244-0.109-0.244-0.244v-15.674
		c0-0.134,0.109-0.244,0.244-0.244h15.674c0.134,0,0.244,0.109,0.244,0.244v15.674c0,0.134-0.109,0.244-0.244,0.244H-1035.975z
		 M-1024.851,1005.562v-3.258h2.986L-1024.851,1005.562z M-1023.812,1006.828l4.38-4.74c0.591-0.313,0.996-0.934,0.996-1.649v-9.636
		h7.212l-3.123,7.696c-0.092,0.226-0.092,0.453,0,0.633l3.349,7.696H-1023.812z"/>
</g>
<g>
	<path d="M-996.389,978.97l9.993,16.062h0.067V978.97h4.929v23.942h-5.265l-9.959-16.029h-0.067v16.029h-4.929V978.97H-996.389z"/>
	<path d="M-977.855,990.908c0.067-1.118,0.346-2.045,0.838-2.783c0.491-0.738,1.118-1.33,1.878-1.777
		c0.76-0.447,1.615-0.766,2.565-0.956c0.95-0.19,1.906-0.285,2.867-0.285c0.872,0,1.755,0.062,2.649,0.184
		c0.894,0.123,1.71,0.364,2.448,0.721c0.738,0.358,1.341,0.855,1.811,1.492c0.469,0.637,0.704,1.481,0.704,2.532v9.02
		c0,0.783,0.045,1.531,0.134,2.247c0.089,0.716,0.246,1.252,0.469,1.61h-4.829c-0.09-0.268-0.162-0.542-0.218-0.822
		c-0.056-0.279-0.095-0.564-0.117-0.855c-0.76,0.783-1.655,1.33-2.683,1.643c-1.029,0.313-2.079,0.469-3.152,0.469
		c-0.827,0-1.599-0.101-2.314-0.302c-0.716-0.201-1.341-0.514-1.878-0.939c-0.536-0.424-0.956-0.961-1.257-1.61
		c-0.302-0.648-0.453-1.419-0.453-2.314c0-0.983,0.173-1.794,0.52-2.431c0.346-0.637,0.793-1.145,1.341-1.526
		c0.548-0.38,1.174-0.665,1.878-0.855c0.704-0.19,1.414-0.341,2.129-0.453c0.715-0.112,1.419-0.201,2.113-0.268
		c0.693-0.067,1.308-0.168,1.844-0.302c0.536-0.134,0.961-0.33,1.274-0.587c0.313-0.257,0.458-0.631,0.436-1.123
		c0-0.514-0.084-0.922-0.251-1.224c-0.168-0.302-0.391-0.537-0.671-0.704c-0.28-0.168-0.604-0.279-0.972-0.335
		c-0.369-0.056-0.766-0.084-1.19-0.084c-0.939,0-1.677,0.201-2.213,0.604c-0.536,0.402-0.85,1.073-0.939,2.012H-977.855z
		 M-966.857,994.429c-0.201,0.179-0.453,0.319-0.754,0.419c-0.302,0.101-0.626,0.184-0.972,0.251
		c-0.347,0.067-0.71,0.123-1.09,0.168c-0.38,0.045-0.76,0.101-1.14,0.168c-0.358,0.067-0.71,0.157-1.056,0.268
		c-0.347,0.112-0.649,0.263-0.905,0.453c-0.257,0.19-0.464,0.431-0.62,0.721c-0.157,0.291-0.235,0.66-0.235,1.107
		c0,0.425,0.078,0.783,0.235,1.073c0.156,0.291,0.369,0.52,0.637,0.687s0.581,0.285,0.939,0.352
		c0.357,0.067,0.726,0.101,1.107,0.101c0.939,0,1.665-0.156,2.18-0.469c0.514-0.313,0.894-0.687,1.14-1.123
		c0.246-0.436,0.397-0.877,0.453-1.324c0.056-0.447,0.084-0.805,0.084-1.073V994.429z"/>
	<path d="M-949.232,985.576v3.186h-3.487v8.584c0,0.805,0.134,1.341,0.402,1.61c0.268,0.268,0.805,0.402,1.61,0.402
		c0.268,0,0.525-0.011,0.771-0.034c0.246-0.022,0.48-0.056,0.704-0.101v3.689c-0.402,0.067-0.85,0.112-1.341,0.134
		c-0.492,0.022-0.972,0.034-1.442,0.034c-0.738,0-1.437-0.05-2.096-0.151c-0.66-0.101-1.241-0.296-1.744-0.587
		c-0.503-0.29-0.9-0.704-1.19-1.241c-0.291-0.536-0.436-1.241-0.436-2.113v-10.227h-2.884v-3.186h2.884v-5.198h4.762v5.198H-949.232
		z"/>
	<path d="M-946.976,982.894v-3.923h4.762v3.923H-946.976z M-942.214,985.576v17.336h-4.762v-17.336H-942.214z"/>
	<path d="M-938.858,990.489c0.424-1.129,1.028-2.09,1.811-2.884c0.782-0.793,1.721-1.408,2.817-1.844
		c1.095-0.436,2.325-0.654,3.689-0.654c1.363,0,2.599,0.218,3.705,0.654s2.051,1.051,2.833,1.844
		c0.782,0.794,1.386,1.755,1.811,2.884c0.424,1.129,0.637,2.387,0.637,3.772c0,1.386-0.213,2.638-0.637,3.756
		c-0.425,1.118-1.029,2.074-1.811,2.867c-0.783,0.794-1.727,1.403-2.833,1.828c-1.107,0.424-2.342,0.637-3.705,0.637
		c-1.364,0-2.594-0.213-3.689-0.637c-1.096-0.424-2.034-1.034-2.817-1.828c-0.783-0.793-1.386-1.749-1.811-2.867
		c-0.425-1.118-0.637-2.369-0.637-3.756C-939.495,992.875-939.283,991.618-938.858,990.489z M-934.532,996.29
		c0.134,0.66,0.363,1.252,0.687,1.777c0.324,0.526,0.755,0.945,1.291,1.258c0.536,0.313,1.207,0.469,2.012,0.469
		c0.805,0,1.481-0.156,2.029-0.469c0.547-0.313,0.983-0.732,1.308-1.258c0.324-0.525,0.553-1.118,0.687-1.777
		c0.134-0.659,0.201-1.336,0.201-2.029c0-0.693-0.067-1.375-0.201-2.046s-0.364-1.263-0.687-1.777
		c-0.324-0.514-0.76-0.933-1.308-1.257c-0.548-0.324-1.224-0.486-2.029-0.486c-0.805,0-1.475,0.162-2.012,0.486
		c-0.536,0.324-0.967,0.743-1.291,1.257c-0.324,0.515-0.553,1.107-0.687,1.777c-0.134,0.671-0.201,1.353-0.201,2.046
		C-934.733,994.954-934.666,995.631-934.532,996.29z"/>
	<path d="M-914.409,985.576v2.414h0.101c0.604-1.006,1.386-1.738,2.347-2.196c0.961-0.458,1.945-0.687,2.951-0.687
		c1.274,0,2.319,0.173,3.135,0.52c0.816,0.347,1.459,0.827,1.928,1.442c0.469,0.615,0.799,1.364,0.989,2.247
		c0.19,0.883,0.285,1.861,0.285,2.934v10.663h-4.762v-9.792c0-1.43-0.224-2.498-0.671-3.202c-0.448-0.704-1.241-1.056-2.381-1.056
		c-1.297,0-2.236,0.386-2.817,1.157c-0.582,0.771-0.872,2.04-0.872,3.806v9.087h-4.762v-17.336H-914.409z"/>
	<path d="M-887.681,978.97c1.14,0,2.18,0.101,3.119,0.302c0.939,0.201,1.744,0.531,2.414,0.989c0.671,0.458,1.19,1.068,1.559,1.828
		c0.369,0.76,0.553,1.699,0.553,2.817c0,1.207-0.274,2.213-0.822,3.018c-0.548,0.805-1.358,1.464-2.431,1.978
		c1.475,0.425,2.576,1.168,3.303,2.23c0.726,1.062,1.09,2.342,1.09,3.839c0,1.207-0.235,2.252-0.704,3.135
		c-0.469,0.883-1.101,1.604-1.895,2.163c-0.794,0.559-1.699,0.972-2.716,1.241c-1.018,0.268-2.062,0.402-3.135,0.402h-11.602V978.97
		H-887.681z M-888.352,988.661c0.939,0,1.71-0.223,2.314-0.671c0.604-0.447,0.905-1.174,0.905-2.18c0-0.558-0.101-1.017-0.302-1.375
		c-0.201-0.357-0.469-0.637-0.805-0.838s-0.721-0.341-1.157-0.419c-0.436-0.078-0.889-0.117-1.358-0.117h-4.929v5.6H-888.352z
		 M-888.05,998.822c0.514,0,1.006-0.05,1.475-0.151c0.469-0.101,0.883-0.268,1.241-0.503c0.357-0.235,0.642-0.553,0.855-0.956
		c0.212-0.402,0.319-0.916,0.319-1.543c0-1.229-0.347-2.107-1.039-2.632c-0.693-0.525-1.61-0.788-2.75-0.788h-5.734v6.572H-888.05z"
		/>
	<path d="M-871.629,985.576v3.219h0.067c0.223-0.537,0.525-1.034,0.905-1.492c0.38-0.458,0.816-0.849,1.308-1.174
		c0.492-0.324,1.017-0.575,1.576-0.755c0.559-0.179,1.14-0.268,1.744-0.268c0.313,0,0.659,0.056,1.04,0.168v4.426
		c-0.224-0.045-0.492-0.084-0.805-0.117c-0.313-0.034-0.615-0.05-0.905-0.05c-0.872,0-1.61,0.146-2.213,0.436
		c-0.604,0.291-1.09,0.687-1.459,1.19c-0.369,0.503-0.632,1.09-0.788,1.76c-0.157,0.671-0.235,1.397-0.235,2.18v7.813h-4.762
		v-17.336H-871.629z"/>
	<path d="M-863.441,990.908c0.067-1.118,0.346-2.045,0.838-2.783c0.492-0.738,1.118-1.33,1.878-1.777
		c0.76-0.447,1.615-0.766,2.565-0.956c0.95-0.19,1.906-0.285,2.867-0.285c0.872,0,1.755,0.062,2.649,0.184
		c0.894,0.123,1.71,0.364,2.448,0.721c0.738,0.358,1.341,0.855,1.811,1.492c0.469,0.637,0.704,1.481,0.704,2.532v9.02
		c0,0.783,0.045,1.531,0.134,2.247c0.089,0.716,0.246,1.252,0.469,1.61h-4.829c-0.09-0.268-0.162-0.542-0.218-0.822
		c-0.056-0.279-0.095-0.564-0.117-0.855c-0.76,0.783-1.655,1.33-2.683,1.643c-1.029,0.313-2.079,0.469-3.152,0.469
		c-0.827,0-1.599-0.101-2.314-0.302c-0.716-0.201-1.341-0.514-1.878-0.939c-0.536-0.424-0.956-0.961-1.257-1.61
		c-0.302-0.648-0.453-1.419-0.453-2.314c0-0.983,0.173-1.794,0.52-2.431c0.346-0.637,0.793-1.145,1.341-1.526
		c0.547-0.38,1.174-0.665,1.878-0.855c0.704-0.19,1.414-0.341,2.129-0.453c0.715-0.112,1.419-0.201,2.113-0.268
		c0.693-0.067,1.308-0.168,1.844-0.302c0.536-0.134,0.961-0.33,1.274-0.587c0.313-0.257,0.458-0.631,0.436-1.123
		c0-0.514-0.084-0.922-0.252-1.224c-0.168-0.302-0.391-0.537-0.671-0.704c-0.28-0.168-0.604-0.279-0.972-0.335
		c-0.369-0.056-0.766-0.084-1.19-0.084c-0.939,0-1.677,0.201-2.213,0.604c-0.536,0.402-0.85,1.073-0.939,2.012H-863.441z
		 M-852.442,994.429c-0.201,0.179-0.453,0.319-0.755,0.419c-0.302,0.101-0.626,0.184-0.972,0.251
		c-0.347,0.067-0.71,0.123-1.09,0.168c-0.38,0.045-0.76,0.101-1.14,0.168c-0.358,0.067-0.71,0.157-1.056,0.268
		c-0.347,0.112-0.649,0.263-0.905,0.453c-0.257,0.19-0.464,0.431-0.62,0.721c-0.157,0.291-0.235,0.66-0.235,1.107
		c0,0.425,0.078,0.783,0.235,1.073c0.156,0.291,0.369,0.52,0.637,0.687s0.581,0.285,0.939,0.352
		c0.357,0.067,0.726,0.101,1.107,0.101c0.939,0,1.665-0.156,2.18-0.469c0.514-0.313,0.894-0.687,1.14-1.123
		c0.246-0.436,0.397-0.877,0.453-1.324c0.056-0.447,0.084-0.805,0.084-1.073V994.429z"/>
	<path d="M-839.77,985.576v2.414h0.101c0.604-1.006,1.386-1.738,2.347-2.196c0.961-0.458,1.945-0.687,2.951-0.687
		c1.274,0,2.319,0.173,3.135,0.52c0.816,0.347,1.459,0.827,1.928,1.442c0.469,0.615,0.799,1.364,0.989,2.247
		c0.19,0.883,0.285,1.861,0.285,2.934v10.663h-4.762v-9.792c0-1.43-0.224-2.498-0.671-3.202c-0.447-0.704-1.241-1.056-2.381-1.056
		c-1.297,0-2.236,0.386-2.817,1.157c-0.582,0.771-0.872,2.04-0.872,3.806v9.087h-4.762v-17.336H-839.77z"/>
	<path d="M-812.442,1000.699c-0.559,0.939-1.291,1.615-2.196,2.029c-0.905,0.413-1.928,0.62-3.068,0.62
		c-1.297,0-2.437-0.252-3.42-0.755c-0.984-0.503-1.794-1.185-2.431-2.045c-0.637-0.86-1.118-1.849-1.442-2.968
		c-0.324-1.118-0.486-2.28-0.486-3.487c0-1.162,0.162-2.285,0.486-3.37c0.324-1.084,0.805-2.04,1.442-2.867
		c0.637-0.827,1.436-1.492,2.398-1.995c0.961-0.503,2.079-0.754,3.353-0.754c1.028,0,2.006,0.218,2.934,0.654
		c0.927,0.436,1.66,1.079,2.196,1.928h0.067v-8.719h4.762v23.942h-4.527v-2.213H-812.442z M-812.643,992.132
		c-0.134-0.659-0.364-1.241-0.687-1.744c-0.324-0.503-0.743-0.911-1.257-1.224c-0.515-0.313-1.163-0.469-1.945-0.469
		c-0.783,0-1.442,0.157-1.978,0.469c-0.536,0.313-0.967,0.727-1.291,1.241c-0.324,0.515-0.559,1.101-0.704,1.76
		c-0.146,0.66-0.218,1.347-0.218,2.062c0,0.671,0.078,1.341,0.235,2.012c0.156,0.671,0.408,1.269,0.755,1.794
		c0.346,0.526,0.782,0.95,1.308,1.274c0.525,0.324,1.157,0.486,1.895,0.486c0.782,0,1.436-0.156,1.962-0.469
		c0.525-0.313,0.944-0.732,1.257-1.258c0.313-0.525,0.536-1.123,0.671-1.794s0.201-1.363,0.201-2.079
		C-812.442,993.479-812.509,992.792-812.643,992.132z"/>
	<path d="M-804.471,982.894v-3.923h4.762v3.923H-804.471z M-799.71,985.576v17.336h-4.762v-17.336H-799.71z"/>
	<path d="M-791.789,985.576v2.414h0.101c0.604-1.006,1.386-1.738,2.347-2.196c0.961-0.458,1.945-0.687,2.951-0.687
		c1.274,0,2.319,0.173,3.135,0.52c0.816,0.347,1.459,0.827,1.928,1.442c0.469,0.615,0.799,1.364,0.989,2.247
		c0.19,0.883,0.285,1.861,0.285,2.934v10.663h-4.762v-9.792c0-1.43-0.224-2.498-0.671-3.202c-0.447-0.704-1.241-1.056-2.381-1.056
		c-1.297,0-2.236,0.386-2.817,1.157c-0.582,0.771-0.872,2.04-0.872,3.806v9.087h-4.762v-17.336H-791.789z"/>
	<path d="M-760.497,1004.187c-0.19,0.894-0.598,1.727-1.224,2.498c-0.626,0.771-1.531,1.425-2.716,1.962
		c-1.185,0.537-2.772,0.805-4.762,0.805c-0.85,0-1.716-0.106-2.599-0.318c-0.883-0.213-1.688-0.542-2.414-0.989
		c-0.727-0.447-1.33-1.023-1.811-1.727c-0.481-0.704-0.754-1.548-0.822-2.532h4.728c0.223,0.894,0.659,1.514,1.308,1.861
		c0.648,0.346,1.397,0.52,2.247,0.52c1.341,0,2.319-0.402,2.934-1.207c0.615-0.805,0.911-1.822,0.889-3.051v-2.28h-0.067
		c-0.515,0.917-1.247,1.593-2.196,2.029c-0.95,0.436-1.951,0.654-3.001,0.654c-1.297,0-2.414-0.229-3.353-0.687
		c-0.939-0.458-1.71-1.084-2.314-1.878c-0.604-0.793-1.045-1.721-1.325-2.783c-0.28-1.062-0.419-2.185-0.419-3.37
		c0-1.118,0.162-2.196,0.486-3.236c0.324-1.039,0.799-1.956,1.425-2.75c0.626-0.793,1.403-1.425,2.331-1.895
		c0.927-0.469,1.995-0.704,3.202-0.704c1.14,0,2.14,0.213,3.001,0.637c0.86,0.425,1.581,1.14,2.163,2.146h0.067v-2.314h4.527v16.23
		C-760.212,1002.499-760.308,1003.292-760.497,1004.187z M-767.019,998.419c0.514-0.268,0.939-0.626,1.274-1.073
		c0.335-0.447,0.587-0.956,0.755-1.526s0.251-1.168,0.251-1.794c0-0.715-0.067-1.392-0.201-2.029
		c-0.134-0.637-0.358-1.201-0.671-1.693c-0.313-0.491-0.727-0.883-1.241-1.174c-0.514-0.29-1.163-0.436-1.945-0.436
		c-0.671,0-1.246,0.134-1.727,0.402c-0.481,0.268-0.883,0.632-1.207,1.09c-0.324,0.458-0.559,0.984-0.704,1.576
		c-0.146,0.593-0.218,1.213-0.218,1.861c0,0.626,0.061,1.246,0.184,1.861c0.123,0.615,0.335,1.168,0.637,1.66
		c0.302,0.492,0.698,0.894,1.19,1.207c0.491,0.313,1.107,0.469,1.844,0.469C-768.126,998.822-767.534,998.687-767.019,998.419z"/>
	<path class="st1" d="M-751.152,978.97l9.993,16.062h0.067V978.97h4.929v23.942h-5.265l-9.959-16.029h-0.067v16.029h-4.929V978.97
		H-751.152z"/>
	<path class="st1" d="M-732.485,990.489c0.424-1.129,1.028-2.09,1.811-2.884c0.782-0.793,1.721-1.408,2.817-1.844
		c1.095-0.436,2.325-0.654,3.689-0.654c1.363,0,2.599,0.218,3.705,0.654s2.051,1.051,2.833,1.844
		c0.782,0.794,1.386,1.755,1.811,2.884c0.424,1.129,0.637,2.387,0.637,3.772c0,1.386-0.213,2.638-0.637,3.756
		c-0.425,1.118-1.029,2.074-1.811,2.867c-0.783,0.794-1.727,1.403-2.833,1.828c-1.107,0.424-2.342,0.637-3.705,0.637
		c-1.364,0-2.594-0.213-3.689-0.637c-1.096-0.424-2.034-1.034-2.817-1.828c-0.783-0.793-1.386-1.749-1.811-2.867
		c-0.425-1.118-0.637-2.369-0.637-3.756C-733.122,992.875-732.909,991.618-732.485,990.489z M-728.159,996.29
		c0.134,0.66,0.363,1.252,0.687,1.777c0.324,0.526,0.755,0.945,1.291,1.258c0.536,0.313,1.207,0.469,2.012,0.469
		c0.805,0,1.481-0.156,2.029-0.469c0.547-0.313,0.983-0.732,1.308-1.258c0.324-0.525,0.553-1.118,0.687-1.777
		c0.134-0.659,0.201-1.336,0.201-2.029c0-0.693-0.067-1.375-0.201-2.046s-0.364-1.263-0.687-1.777
		c-0.324-0.514-0.76-0.933-1.308-1.257c-0.548-0.324-1.224-0.486-2.029-0.486c-0.805,0-1.475,0.162-2.012,0.486
		c-0.536,0.324-0.967,0.743-1.291,1.257c-0.324,0.515-0.553,1.107-0.687,1.777c-0.134,0.671-0.201,1.353-0.201,2.046
		C-728.36,994.954-728.293,995.631-728.159,996.29z"/>
	<path class="st1" d="M-698.245,1002.913l-3.085-11.636h-0.067l-2.951,11.636h-4.929l-5.499-17.336h5.03l3.186,11.77h0.067
		l2.884-11.77h4.628l2.951,11.736h0.067l3.186-11.736h4.896l-5.466,17.336H-698.245z"/>
	<path class="st1" d="M-682.327,997.749v5.164h-5.265v-5.164H-682.327z"/>
</g>
</svg>
